<svg width="129" height="116" viewBox="0 0 129 116" fill="none" xmlns="http://www.w3.org/2000/svg">
<g clip-path="url(#clip0_11_27)">
<path d="M66.0651 0.252971L61.8676 1.33749L10.1544 14.699L5.95698 15.7835C3.91959 16.3124 2.17479 17.6294 1.10534 19.4456C0.0359033 21.2618 -0.270832 23.4288 0.252433 25.4713L18.4534 96.1868C18.9813 98.2281 20.2957 99.9763 22.1084 101.048C23.9211 102.119 26.084 102.427 28.1226 101.902L28.1334 101.9L88.2198 86.3746L88.2306 86.3718C90.268 85.843 92.0128 84.526 93.0823 82.7098C94.1517 80.8936 94.4585 78.7265 93.9352 76.684L75.7342 5.96855C75.2064 3.92724 73.8919 2.17906 72.0792 1.10754C70.2665 0.0360341 68.1036 -0.271299 66.0651 0.252971Z" fill="#F2F2F2"/>
<path d="M66.6358 2.47004L61.6642 3.75458L11.4991 16.7161L6.52762 18.0006C5.07675 18.3772 3.83422 19.3151 3.07264 20.6084C2.31106 21.9018 2.09263 23.445 2.46526 24.8995L20.6663 95.615C21.0421 97.0687 21.9782 98.3136 23.2691 99.0766C24.5599 99.8397 26.1002 100.059 27.5519 99.6852L27.5627 99.6824L87.6491 84.1574L87.66 84.1546C89.1109 83.778 90.3534 82.8401 91.1149 81.5468C91.8765 80.2534 92.0949 78.7102 91.7223 77.2557L73.5213 6.54024C73.1454 5.08659 72.2094 3.84167 70.9186 3.07863C69.6277 2.31558 68.0875 2.09671 66.6358 2.47004Z" fill="white"/>
<path d="M62.8818 25.3696L32.4855 33.2233C32.1461 33.311 31.7857 33.26 31.4837 33.0815C31.1817 32.903 30.9629 32.6116 30.8754 32.2715C30.7878 31.9313 30.8387 31.5703 31.0169 31.2677C31.195 30.9652 31.4858 30.7459 31.8253 30.6582L62.2216 22.8045C62.561 22.7171 62.9211 22.7683 63.2228 22.9469C63.5245 23.1254 63.7431 23.4166 63.8306 23.7566C63.9181 24.0965 63.8673 24.4574 63.6894 24.7598C63.5115 25.0623 63.221 25.2816 62.8818 25.3696Z" fill="#F2F2F2"/>
<path d="M69.2762 28.3338L33.5997 37.5519C33.2602 37.6396 32.8998 37.5886 32.5979 37.4101C32.2959 37.2316 32.0771 36.9402 31.9895 36.6001C31.902 36.2599 31.9529 35.8988 32.131 35.5963C32.3092 35.2937 32.6 35.0745 32.9395 34.9868L68.616 25.7688C68.9555 25.6811 69.3159 25.7321 69.6178 25.9105C69.9198 26.089 70.1386 26.3804 70.2262 26.7206C70.3137 27.0607 70.2628 27.4218 70.0847 27.7243C69.9065 28.0269 69.6157 28.2461 69.2762 28.3338Z" fill="#F2F2F2"/>
<path d="M67.8747 44.7679L37.4784 52.6216C37.3103 52.6651 37.1353 52.6749 36.9634 52.6506C36.7915 52.6262 36.6261 52.5682 36.4766 52.4798C36.3271 52.3915 36.1964 52.2744 36.092 52.1355C35.9876 51.9965 35.9116 51.8383 35.8682 51.6698C35.8249 51.5014 35.8151 51.3261 35.8393 51.1538C35.8636 50.9816 35.9215 50.8159 36.0097 50.6661C36.0979 50.5163 36.2147 50.3853 36.3535 50.2807C36.4922 50.1762 36.6501 50.1 36.8182 50.0566L67.2144 42.2028C67.3825 42.1594 67.5575 42.1496 67.7294 42.1739C67.9013 42.1982 68.0668 42.2562 68.2163 42.3446C68.3658 42.433 68.4965 42.55 68.6009 42.689C68.7052 42.828 68.7813 42.9862 68.8246 43.1546C68.868 43.3231 68.8778 43.4984 68.8535 43.6706C68.8292 43.8429 68.7713 44.0086 68.6831 44.1584C68.5949 44.3082 68.4781 44.4391 68.3394 44.5437C68.2007 44.6483 68.0428 44.7245 67.8747 44.7679Z" fill="#F2F2F2"/>
<path d="M74.269 47.7322L38.5925 56.9502C38.4244 56.9936 38.2494 57.0034 38.0775 56.9791C37.9056 56.9548 37.7402 56.8968 37.5906 56.8084C37.4411 56.72 37.3105 56.603 37.2061 56.464C37.1017 56.325 37.0257 56.1668 36.9823 55.9984C36.939 55.83 36.9291 55.6546 36.9534 55.4824C36.9777 55.3102 37.0356 55.1444 37.1238 54.9946C37.212 54.8448 37.3288 54.7139 37.4675 54.6093C37.6062 54.5047 37.7642 54.4285 37.9323 54.3851L73.6088 45.1671C73.9483 45.0794 74.3087 45.1304 74.6106 45.3089C74.9126 45.4874 75.1314 45.7787 75.219 46.1189C75.3065 46.459 75.2556 46.8201 75.0775 47.1226C74.8993 47.4252 74.6085 47.6444 74.269 47.7322Z" fill="#F2F2F2"/>
<path d="M72.8674 64.1662L42.4712 72.0199C42.1318 72.1074 41.7716 72.0562 41.4698 71.8777C41.1681 71.6992 40.9494 71.4079 40.8619 71.0679C40.7744 70.7279 40.8252 70.367 41.0032 70.0645C41.1811 69.7621 41.4717 69.5428 41.811 69.4549L72.2072 61.6012C72.5467 61.5134 72.9071 61.5644 73.209 61.7429C73.511 61.9214 73.7298 62.2128 73.8174 62.553C73.9049 62.8931 73.854 63.2542 73.6759 63.5567C73.4977 63.8593 73.2069 64.0785 72.8674 64.1662Z" fill="#F2F2F2"/>
<path d="M79.2619 67.1305L43.5853 76.3485C43.4172 76.3921 43.2421 76.4021 43.0701 76.3778C42.8981 76.3536 42.7325 76.2957 42.5829 76.2073C42.4332 76.1189 42.3024 76.0019 42.198 75.8628C42.0935 75.7238 42.0174 75.5655 41.974 75.397C41.9306 75.2285 41.9208 75.053 41.9452 74.8807C41.9695 74.7084 42.0275 74.5426 42.1158 74.3927C42.2041 74.2429 42.3211 74.1119 42.4599 74.0074C42.5988 73.9028 42.7569 73.8267 42.9251 73.7834L78.6016 64.5654C78.9411 64.4777 79.3015 64.5287 79.6035 64.7072C79.9054 64.8857 80.1243 65.177 80.2118 65.5172C80.2994 65.8573 80.2485 66.2184 80.0703 66.521C79.8922 66.8235 79.6014 67.0428 79.2619 67.1305Z" fill="#F2F2F2"/>
<path d="M27.2965 41.2761L16.5395 44.0554C16.3767 44.0973 16.204 44.0727 16.0593 43.9872C15.9145 43.9016 15.8096 43.762 15.7674 43.599L13.2982 34.0054C13.2564 33.8423 13.2809 33.6692 13.3663 33.5242C13.4517 33.3792 13.591 33.274 13.7537 33.2318L24.5106 30.4525C24.6734 30.4106 24.8461 30.4351 24.9909 30.5207C25.1356 30.6063 25.2406 30.7458 25.2827 30.9088L27.752 40.5025C27.7938 40.6656 27.7693 40.8386 27.6839 40.9837C27.5985 41.1287 27.4591 41.2338 27.2965 41.2761Z" fill="#E6E6E6"/>
<path d="M32.2893 60.6745L21.5324 63.4539C21.3696 63.4957 21.1969 63.4712 21.0521 63.3856C20.9074 63.3001 20.8024 63.1605 20.7603 62.9975L18.291 53.4038C18.2493 53.2407 18.2738 53.0677 18.3592 52.9227C18.4445 52.7776 18.5839 52.6725 18.7466 52.6303L29.5035 49.8509C29.6663 49.809 29.839 49.8336 29.9837 49.9191C30.1285 50.0047 30.2334 50.1443 30.2756 50.3073L32.7448 59.9009C32.7866 60.064 32.7621 60.2371 32.6767 60.3821C32.5913 60.5271 32.452 60.6323 32.2893 60.6745Z" fill="#E6E6E6"/>
<path d="M37.2821 80.0728L26.5252 82.8522C26.3624 82.894 26.1897 82.8695 26.0449 82.7839C25.9002 82.6984 25.7952 82.5588 25.7531 82.3958L23.2838 72.8021C23.2421 72.639 23.2666 72.466 23.3519 72.321C23.4373 72.176 23.5767 72.0708 23.7394 72.0286L34.4963 69.2492C34.6591 69.2074 34.8318 69.2319 34.9765 69.3174C35.1213 69.403 35.2262 69.5426 35.2684 69.7056L37.7376 79.2993C37.7794 79.4623 37.7549 79.6354 37.6695 79.7804C37.5841 79.9254 37.4448 80.0306 37.2821 80.0728Z" fill="#E6E6E6"/>
<path d="M107.987 18.1783H45.9129C43.8082 18.1807 41.7905 19.0195 40.3022 20.5105C38.814 22.0016 37.9769 24.0233 37.9745 26.132V99.161C37.9769 101.27 38.814 103.291 40.3022 104.782C41.7905 106.274 43.8082 107.112 45.9129 107.115H107.987C110.092 107.112 112.11 106.274 113.598 104.782C115.086 103.291 115.923 101.27 115.926 99.161V26.132C115.923 24.0233 115.086 22.0016 113.598 20.5105C112.11 19.0195 110.092 18.1807 107.987 18.1783Z" fill="#E6E6E6"/>
<path d="M107.987 20.468H45.9128C44.4141 20.4697 42.9772 21.067 41.9174 22.1288C40.8576 23.1907 40.2614 24.6303 40.2598 26.132V99.161C40.2615 100.663 40.8576 102.102 41.9174 103.164C42.9772 104.226 44.4141 104.823 45.9128 104.825H107.987C109.486 104.823 110.923 104.226 111.983 103.164C113.043 102.102 113.639 100.663 113.64 99.161V26.132C113.639 24.6303 113.043 23.1907 111.983 22.1288C110.923 21.067 109.486 20.4697 107.987 20.468Z" fill="white"/>
<path d="M114.509 116C122.512 116 129 109.5 129 101.481C129 93.4623 122.512 86.9619 114.509 86.9619C106.506 86.9619 100.018 93.4623 100.018 101.481C100.018 109.5 106.506 116 114.509 116Z" fill="#ABBFE4"/>
<path d="M121.439 99.5871H116.399V94.537C116.399 94.0347 116.2 93.553 115.845 93.1979C115.491 92.8427 115.01 92.6432 114.509 92.6432C114.008 92.6432 113.527 92.8427 113.172 93.1979C112.818 93.553 112.619 94.0347 112.619 94.537V99.5871H107.578C107.077 99.5871 106.596 99.7866 106.242 100.142C105.887 100.497 105.688 100.979 105.688 101.481C105.688 101.983 105.887 102.465 106.242 102.82C106.596 103.175 107.077 103.375 107.578 103.375H112.619V108.425C112.619 108.927 112.818 109.409 113.172 109.764C113.527 110.119 114.008 110.319 114.509 110.319C115.01 110.319 115.491 110.119 115.845 109.764C116.2 109.409 116.399 108.927 116.399 108.425V103.375H121.439C121.941 103.375 122.421 103.175 122.776 102.82C123.13 102.465 123.33 101.983 123.33 101.481C123.33 100.979 123.13 100.497 122.776 100.142C122.421 99.7866 121.941 99.5871 121.439 99.5871Z" fill="white"/>
<path d="M98.6452 60.5974H67.2545C67.0808 60.5976 66.9087 60.5634 66.7482 60.497C66.5876 60.4305 66.4417 60.333 66.3188 60.2099C66.1959 60.0869 66.0984 59.9409 66.0319 59.7801C65.9653 59.6193 65.9311 59.4469 65.9311 59.2729C65.9311 59.0988 65.9653 58.9264 66.0319 58.7657C66.0984 58.6049 66.1959 58.4588 66.3188 58.3358C66.4417 58.2128 66.5876 58.1152 66.7482 58.0488C66.9087 57.9823 67.0808 57.9482 67.2545 57.9484H98.6452C98.9956 57.9488 99.3314 58.0885 99.579 58.3368C99.8266 58.5852 99.9657 58.9218 99.9657 59.2729C99.9657 59.6239 99.8266 59.9606 99.579 60.2089C99.3314 60.4572 98.9956 60.597 98.6452 60.5974Z" fill="#E6E6E6"/>
<path d="M104.098 65.0674H67.2545C67.0808 65.0676 66.9087 65.0335 66.7482 64.9671C66.5876 64.9006 66.4417 64.803 66.3188 64.68C66.1959 64.557 66.0984 64.4109 66.0319 64.2502C65.9653 64.0894 65.9311 63.917 65.9311 63.743C65.9311 63.5689 65.9653 63.3965 66.0319 63.2357C66.0984 63.075 66.1959 62.9289 66.3188 62.8059C66.4417 62.6829 66.5876 62.5853 66.7482 62.5189C66.9087 62.4524 67.0808 62.4183 67.2545 62.4185H104.098C104.449 62.4185 104.785 62.558 105.033 62.8064C105.281 63.0548 105.42 63.3917 105.42 63.743C105.42 64.0942 105.281 64.4311 105.033 64.6795C104.785 64.9279 104.449 65.0674 104.098 65.0674Z" fill="#E6E6E6"/>
<path d="M98.6452 80.6303H67.2545C67.0808 80.6305 66.9087 80.5964 66.7482 80.5299C66.5876 80.4634 66.4417 80.3659 66.3188 80.2429C66.1959 80.1199 66.0984 79.9738 66.0319 79.813C65.9653 79.6522 65.9311 79.4799 65.9311 79.3058C65.9311 79.1318 65.9653 78.9594 66.0319 78.7986C66.0984 78.6378 66.1959 78.4917 66.3188 78.3687C66.4417 78.2457 66.5876 78.1482 66.7482 78.0817C66.9087 78.0152 67.0808 77.9811 67.2545 77.9813H98.6452C98.9958 77.9813 99.3321 78.1209 99.58 78.3693C99.8279 78.6177 99.9672 78.9545 99.9672 79.3058C99.9672 79.6571 99.8279 79.994 99.58 80.2424C99.3321 80.4908 98.9958 80.6303 98.6452 80.6303Z" fill="#E6E6E6"/>
<path d="M104.098 85.1005H67.2545C67.0808 85.1007 66.9087 85.0666 66.7482 85.0001C66.5876 84.9337 66.4417 84.8361 66.3188 84.7131C66.1959 84.5901 66.0984 84.444 66.0319 84.2832C65.9653 84.1225 65.9311 83.9501 65.9311 83.776C65.9311 83.602 65.9653 83.4296 66.0319 83.2688C66.0984 83.108 66.1959 82.962 66.3188 82.839C66.4417 82.7159 66.5876 82.6184 66.7482 82.5519C66.9087 82.4855 67.0808 82.4513 67.2545 82.4515H104.098C104.272 82.4513 104.444 82.4855 104.605 82.5519C104.765 82.6184 104.911 82.7159 105.034 82.839C105.157 82.962 105.254 83.108 105.321 83.2688C105.387 83.4296 105.422 83.602 105.422 83.776C105.422 83.9501 105.387 84.1225 105.321 84.2832C105.254 84.444 105.157 84.5901 105.034 84.7131C104.911 84.8361 104.765 84.9337 104.605 85.0001C104.444 85.0666 104.272 85.1007 104.098 85.1005Z" fill="#E6E6E6"/>
<path d="M60.2228 67.0968H49.114C48.9459 67.0966 48.7848 67.0296 48.666 66.9105C48.5471 66.7915 48.4803 66.6301 48.4801 66.4617V56.5542C48.4803 56.3858 48.5471 56.2243 48.666 56.1053C48.7848 55.9862 48.9459 55.9193 49.114 55.9191H60.2228C60.3909 55.9193 60.552 55.9862 60.6709 56.1053C60.7897 56.2243 60.8565 56.3858 60.8567 56.5542V66.4617C60.8565 66.6301 60.7897 66.7915 60.6709 66.9105C60.552 67.0296 60.3909 67.0966 60.2228 67.0968Z" fill="#E6E6E6"/>
<path d="M60.2228 87.1297H49.114C48.9459 87.1295 48.7848 87.0626 48.666 86.9435C48.5471 86.8245 48.4803 86.663 48.4801 86.4946V76.5871C48.4803 76.4187 48.5471 76.2573 48.666 76.1382C48.7848 76.0192 48.9459 75.9522 49.114 75.952H60.2228C60.3909 75.9522 60.552 76.0192 60.6709 76.1382C60.7897 76.2573 60.8565 76.4187 60.8567 76.5871V86.4946C60.8565 86.663 60.7897 86.8245 60.6709 86.9435C60.552 87.0626 60.3909 87.1295 60.2228 87.1297Z" fill="#E6E6E6"/>
<path d="M98.6801 38.2966H75.537C75.1864 38.2966 74.8501 38.157 74.6022 37.9086C74.3543 37.6602 74.215 37.3234 74.215 36.9721C74.215 36.6208 74.3543 36.2839 74.6022 36.0355C74.8501 35.7871 75.1864 35.6476 75.537 35.6476H98.6801C99.0307 35.6476 99.3669 35.7871 99.6148 36.0355C99.8627 36.2839 100.002 36.6208 100.002 36.9721C100.002 37.3234 99.8627 37.6602 99.6148 37.9086C99.3669 38.157 99.0307 38.2966 98.6801 38.2966Z" fill="#CCCCCC"/>
<path d="M104.133 42.7668H75.537C75.3634 42.7668 75.1915 42.7325 75.0311 42.666C74.8707 42.5994 74.725 42.5018 74.6022 42.3789C74.4795 42.2559 74.3821 42.1098 74.3157 41.9492C74.2492 41.7885 74.215 41.6162 74.215 41.4423C74.215 41.2684 74.2492 41.0961 74.3157 40.9354C74.3821 40.7747 74.4795 40.6287 74.6022 40.5057C74.725 40.3827 74.8707 40.2852 75.0311 40.2186C75.1915 40.1521 75.3634 40.1178 75.537 40.1178H104.133C104.484 40.1178 104.82 40.2573 105.068 40.5057C105.316 40.7541 105.455 41.091 105.455 41.4423C105.455 41.7936 105.316 42.1305 105.068 42.3789C104.82 42.6272 104.484 42.7668 104.133 42.7668Z" fill="#CCCCCC"/>
<path d="M70.415 48.1841H49.0791C48.9111 48.1839 48.7499 48.117 48.6311 47.9979C48.5123 47.8789 48.4454 47.7174 48.4453 47.549V30.8654C48.4454 30.6971 48.5123 30.5356 48.6311 30.4166C48.7499 30.2975 48.9111 30.2305 49.0791 30.2303H70.415C70.5831 30.2305 70.7442 30.2975 70.863 30.4166C70.9819 30.5356 71.0487 30.6971 71.0489 30.8654V47.549C71.0487 47.7174 70.9819 47.8789 70.863 47.9979C70.7442 48.117 70.5831 48.1839 70.415 48.1841Z" fill="#ABBFE4"/>
</g>
<defs>
<clipPath id="clip0_11_27">
<rect width="129" height="116" fill="white"/>
</clipPath>
</defs>
</svg>
