<svg width="440" height="440" viewBox="0 0 440 440" fill="none" xmlns="http://www.w3.org/2000/svg">
<mask id="mask0_166_30" style="mask-type:alpha" maskUnits="userSpaceOnUse" x="0" y="0" width="440" height="440">
<rect width="440" height="440" fill="#D9D9D9"/>
</mask>
<g mask="url(#mask0_166_30)">
<path d="M138.559 394.167C123.076 394.167 109.863 388.694 98.9175 377.749C87.9725 366.804 82.5 353.59 82.5 338.108V105.417C82.5 88.8708 88.2933 74.803 99.88 63.2133C111.47 51.6267 125.538 45.8333 142.083 45.8333H324.358C333.473 45.8333 341.275 49.0783 347.765 55.5683C354.255 62.0583 357.5 69.8607 357.5 78.9754V301.547C357.5 303.722 356.654 305.695 354.961 307.464C353.268 309.23 350.53 310.924 346.748 312.547C341.413 314.45 337.11 317.691 333.841 322.268C330.574 326.845 328.941 332.125 328.941 338.108C328.941 343.984 330.545 349.255 333.754 353.92C336.962 358.586 341.234 361.836 346.569 363.669C350.025 365.032 352.71 366.945 354.626 369.408C356.542 371.867 357.5 374.503 357.5 377.314V380.133C357.5 384.013 356.182 387.322 353.545 390.06C350.911 392.798 347.646 394.167 343.75 394.167H138.559ZM163.95 282.054C167.846 282.054 171.111 280.735 173.745 278.098C176.376 275.464 177.691 272.2 177.691 268.304V87.0833C177.691 83.1875 176.373 79.9211 173.736 77.2842C171.099 74.6503 167.833 73.3333 163.937 73.3333C160.038 73.3333 156.773 74.6503 154.142 77.2842C151.508 79.9211 150.191 83.1875 150.191 87.0833V268.304C150.191 272.2 151.51 275.464 154.147 278.098C156.784 280.735 160.052 282.054 163.95 282.054ZM138.559 366.667H309.87C307.212 362.505 305.143 358.081 303.664 353.393C302.182 348.703 301.441 343.608 301.441 338.108C301.441 332.868 302.135 327.838 303.522 323.02C304.909 318.201 307.025 313.711 309.87 309.549H138.559C130.379 309.549 123.574 312.327 118.145 317.882C112.715 323.434 110 330.176 110 338.108C110 346.288 112.715 353.092 118.145 358.522C123.574 363.952 130.379 366.667 138.559 366.667Z" fill="#413730"/>
</g>
</svg>
